<?xml version="1.0" encoding="UTF-8" standalone="no"?>
<!-- Created with Inkscape (http://www.inkscape.org/) -->

<svg
   xmlns:dc="http://purl.org/dc/elements/1.1/"
   xmlns:cc="http://creativecommons.org/ns#"
   xmlns:rdf="http://www.w3.org/1999/02/22-rdf-syntax-ns#"
   xmlns:svg="http://www.w3.org/2000/svg"
   xmlns="http://www.w3.org/2000/svg"
   xmlns:sodipodi="http://sodipodi.sourceforge.net/DTD/sodipodi-0.dtd"
   xmlns:inkscape="http://www.inkscape.org/namespaces/inkscape"
   width="210mm"
   height="297mm"
   viewBox="0 0 744.09448819 1052.3622047"
   id="svg2"
   version="1.1"
   inkscape:version="0.91 r13725"
   sodipodi:docname="desk.svg">
  <defs
     id="defs4" />
  <sodipodi:namedview
     id="base"
     pagecolor="#ffffff"
     bordercolor="#666666"
     borderopacity="1.0"
     inkscape:pageopacity="0.0"
     inkscape:pageshadow="2"
     inkscape:zoom="0.35"
     inkscape:cx="367.67612"
     inkscape:cy="517.14286"
     inkscape:document-units="px"
     inkscape:current-layer="layer1"
     showgrid="false"
     inkscape:window-width="776"
     inkscape:window-height="615"
     inkscape:window-x="2996"
     inkscape:window-y="131"
     inkscape:window-maximized="0" />
  <metadata
     id="metadata7">
    <rdf:RDF>
      <cc:Work
         rdf:about="">
        <dc:format>image/svg+xml</dc:format>
        <dc:type
           rdf:resource="http://purl.org/dc/dcmitype/StillImage" />
        <dc:title></dc:title>
      </cc:Work>
    </rdf:RDF>
  </metadata>
  <g
     inkscape:label="Layer 1"
     inkscape:groupmode="layer"
     id="layer1">
    <rect
       style="opacity:1;fill:#803300;fill-opacity:1;stroke:none;stroke-width:3;stroke-miterlimit:4;stroke-dasharray:none;stroke-opacity:1"
       id="rect4136"
       width="702.85712"
       height="37.142857"
       x="22.857143"
       y="623.79077"
       ry="4.0033002" />
    <path
       style="opacity:1;fill:#803300;fill-opacity:1;stroke:none;stroke-width:3;stroke-miterlimit:4;stroke-dasharray:none;stroke-opacity:1"
       d="m 47.078125,649.5058 c -2.338801,0 -4.220703,1.73589 -4.220703,3.89323 l 0,297.92705 c 0,2.15734 1.881902,3.89323 4.220703,3.89323 l 257.271485,0 c 2.3388,0 4.22266,-1.73589 4.22266,-3.89323 l 0,-297.92705 c 0,-2.15734 -1.88386,-3.89323 -4.22266,-3.89323 l -257.271485,0 z m 37.857422,32.416 181.556643,0 c 2.3388,0 4.22265,1.73589 4.22265,3.89323 l 0,102.90138 c 0,2.15735 -1.88385,3.89504 -4.22265,3.89504 l -181.556643,0 c -2.3388,0 -4.220703,-1.73769 -4.220703,-3.89504 l 0,-102.90138 c 0,-2.15734 1.881903,-3.89323 4.220703,-3.89323 z m 0.703125,134.93544 180.150388,0 c 2.7286,0 4.92578,2.02671 4.92578,4.54362 l 0,101.60243 c 0,2.51689 -2.19718,4.5436 -4.92578,4.5436 l -180.150388,0 c -2.7286,0 -4.923828,-2.02671 -4.923828,-4.5436 l 0,-101.60243 c 0,-2.51691 2.195228,-4.54362 4.923828,-4.54362 z"
       id="rect4138"
       inkscape:connector-curvature="0" />
    <rect
       style="opacity:1;fill:#803300;fill-opacity:1;stroke:none;stroke-width:3;stroke-miterlimit:4;stroke-dasharray:none;stroke-opacity:1"
       id="rect4140"
       width="45.714287"
       height="305.71426"
       x="660"
       y="649.50507"
       ry="3.6926997" />
  </g>
</svg>
