<?xml version="1.0" encoding="UTF-8" standalone="no"?>
<!-- Created with Inkscape (http://www.inkscape.org/) -->

<svg
   xmlns:dc="http://purl.org/dc/elements/1.1/"
   xmlns:cc="http://creativecommons.org/ns#"
   xmlns:rdf="http://www.w3.org/1999/02/22-rdf-syntax-ns#"
   xmlns:svg="http://www.w3.org/2000/svg"
   xmlns="http://www.w3.org/2000/svg"
   xmlns:sodipodi="http://sodipodi.sourceforge.net/DTD/sodipodi-0.dtd"
   xmlns:inkscape="http://www.inkscape.org/namespaces/inkscape"
   id="svg2"
   version="1.1"
   inkscape:version="0.91 r13725"
   xml:space="preserve"
   width="1000"
   height="1000"
   viewBox="0 0 1000 1000"
   sodipodi:docname="notebook.svg"><metadata
     id="metadata8"><rdf:RDF><cc:Work
         rdf:about=""><dc:format>image/svg+xml</dc:format><dc:type
           rdf:resource="http://purl.org/dc/dcmitype/StillImage" /><dc:title></dc:title></cc:Work></rdf:RDF></metadata><defs
     id="defs6"><clipPath
       clipPathUnits="userSpaceOnUse"
       id="clipPath18"><path
         d="M 0,800 800,800 800,0 0,0 0,800 Z"
         id="path20"
         inkscape:connector-curvature="0" /></clipPath><clipPath
       clipPathUnits="userSpaceOnUse"
       id="clipPath152"><path
         d="M 0,800 800,800 800,0 0,0 0,800 Z"
         id="path154"
         inkscape:connector-curvature="0" /></clipPath><clipPath
       clipPathUnits="userSpaceOnUse"
       id="clipPath232"><path
         d="m 365.556,673.244 52.223,0 0,-111.087 -52.223,0 0,111.087 z"
         id="path234"
         inkscape:connector-curvature="0" /></clipPath><clipPath
       clipPathUnits="userSpaceOnUse"
       id="clipPath360"><path
         d="m 107.582,241.732 103.96,0 0,-108.475 -103.96,0 0,108.475 z"
         id="path362"
         inkscape:connector-curvature="0" /></clipPath><filter
       style="color-interpolation-filters:sRGB;"
       inkscape:label="Drop Shadow"
       id="filter7297"><feFlood
         flood-opacity="0.8"
         flood-color="rgb(0,0,0)"
         result="flood"
         id="feFlood7299" /><feComposite
         in="flood"
         in2="SourceGraphic"
         operator="in"
         result="composite1"
         id="feComposite7301" /><feGaussianBlur
         in="composite1"
         stdDeviation="8"
         result="blur"
         id="feGaussianBlur7303" /><feOffset
         dx="-4"
         dy="-3.5"
         result="offset"
         id="feOffset7305" /><feComposite
         in="SourceGraphic"
         in2="offset"
         operator="over"
         result="composite2"
         id="feComposite7307" /></filter></defs><sodipodi:namedview
     pagecolor="#ffffff"
     bordercolor="#666666"
     borderopacity="1"
     objecttolerance="10"
     gridtolerance="10"
     guidetolerance="10"
     inkscape:pageopacity="0"
     inkscape:pageshadow="2"
     inkscape:window-width="1280"
     inkscape:window-height="751"
     id="namedview4"
     showgrid="false"
     inkscape:zoom="0.472"
     inkscape:cx="376.67863"
     inkscape:cy="793.83392"
     inkscape:window-x="0"
     inkscape:window-y="0"
     inkscape:window-maximized="1"
     inkscape:current-layer="g10" /><g
     id="g10"
     inkscape:groupmode="layer"
     inkscape:label="1"
     transform="matrix(1.25,0,0,-1.25,0,1000)"><g
       id="g7204"
       style="filter:url(#filter7297)"
       transform="matrix(1.1010657,0,0,1.1010657,-40.426312,-42.187292)"><g
         id="g7198"><g
           id="g336"
           transform="matrix(4.3121939,0,0,4.3121939,756.37157,173.14626)"><path
             d="m 0,0 -82.643,-2.517 0,108.384 L 0,112.03 0,0 Z"
             style="fill:#50212d;fill-opacity:1;fill-rule:nonzero;stroke:none"
             id="path338"
             inkscape:connector-curvature="0" /></g><g
           id="g340"
           transform="matrix(4.3121939,0,0,4.3121939,400.00108,629.66615)"><path
             d="m 0,0 -82.643,3.836 0,-112.03 L 0,-108.384 0,0 Z"
             style="fill:#50212d;fill-opacity:1;fill-rule:nonzero;stroke:none"
             id="path342"
             inkscape:connector-curvature="0" /></g></g><g
         transform="matrix(4.3121939,0,0,4.3121939,482.18115,191.86024)"
         id="g332"><path
           inkscape:connector-curvature="0"
           id="path334"
           style="fill:#50212d;fill-opacity:1;fill-rule:nonzero;stroke:none"
           d="m 0,0 c 0,-9.064 -7.347,-10.413 -16.41,-10.413 -9.064,0 -16.411,1.349 -16.411,10.413 l 0,94.329 c 0,9.064 7.347,2.999 16.411,2.999 l 3.705,-0.351 C -3.642,96.977 0,103.393 0,94.329 L 0,0 Z" /></g></g><g
       id="g344"
       transform="matrix(4.7480089,0,0,4.7480089,21.01794,149.29281)"><path
         d="m 0,0 0,106.345 76.996,0.492 0,-106.345 L 0,0 Z"
         style="fill:#e8dcd1;fill-opacity:1;fill-rule:nonzero;stroke:none"
         id="path346"
         inkscape:connector-curvature="0" /></g><g
       id="g348"
       transform="matrix(4.7480089,0,0,4.7480089,778.98391,160.33288)"><path
         d="m 0,0 0,106.345 -76.995,-1.833 0,-106.345 L 0,0 Z"
         style="fill:#e8dcd1;fill-opacity:1;fill-rule:nonzero;stroke:none"
         id="path350"
         inkscape:connector-curvature="0" /></g><g
       id="g352"
       transform="matrix(4.7480089,0,0,4.7480089,774.79237,680.37896)"><path
         d="m 0,0 -76.112,-5.018 -5.648,0 -76.113,2.691 0,-106.343 76.113,-2.552 0,-0.14 c 0,0 2.365,-0.284 4.09,-0.186 1.378,0.081 3.322,0.4 3.322,0.4 l 0,0.205 L 0,-106.344 0,0 Z"
         style="fill:#ffffff;fill-opacity:1;fill-rule:nonzero;stroke:none"
         id="path354"
         inkscape:connector-curvature="0" /></g><g
       id="g356"
       transform="matrix(4.7480089,0,0,4.7480089,-396.92126,-482.05801)"><g
         id="g358" /><g
         id="g364"><g
           clip-path="url(#clipPath360)"
           id="g366"
           style="opacity:0.30000299"><g
             transform="translate(108.9016,241.7324)"
             id="g368"><path
               d="m 0,0 -1.32,-106.262 58.895,-1.866 0,-0.141 c 0,0 2.291,-0.284 3.962,-0.185 1.335,0.081 3.218,0.399 3.218,0.399 l 0,0.205 37.885,2.212 L 101.393,-0.091 59.732,-1.924 0,0 Z"
               style="fill:#f9f3ef;fill-opacity:1;fill-rule:nonzero;stroke:none"
               id="path370"
               inkscape:connector-curvature="0" /></g></g></g></g><g
       id="g6848"
       transform="matrix(1.1010657,0,0,1.1010657,-40.426312,-42.187292)"><g
         id="g6824"><g
           id="g372"
           transform="matrix(4.3121939,0,0,4.3121939,389.85621,613.33544)"><path
             d="m 0,0 -70.172,1.811 0,-4.614 L 0,-4.611 0,0 Z"
             style="fill:#f4ebe6;fill-opacity:1;fill-rule:nonzero;stroke:none"
             id="path374"
             inkscape:connector-curvature="0" /></g><g
           id="g376"
           transform="matrix(4.3121939,0,0,4.3121939,389.85621,576.55976)"><path
             d="m 0,0 -70.172,1.811 0,-4.614 L 0,-4.613 0,0 Z"
             style="fill:#f4ebe6;fill-opacity:1;fill-rule:nonzero;stroke:none"
             id="path378"
             inkscape:connector-curvature="0" /></g><g
           id="g380"
           transform="matrix(4.3121939,0,0,4.3121939,389.85621,538.25928)"><path
             d="m 0,0 -70.172,1.811 0,-4.615 L 0,-4.613 0,0 Z"
             style="fill:#f4ebe6;fill-opacity:1;fill-rule:nonzero;stroke:none"
             id="path382"
             inkscape:connector-curvature="0" /></g><g
           id="g384"
           transform="matrix(4.3121939,0,0,4.3121939,389.85621,501.48791)"><path
             d="m 0,0 -70.172,1.81 0,-4.614 L 0,-4.613 0,0 Z"
             style="fill:#f4ebe6;fill-opacity:1;fill-rule:nonzero;stroke:none"
             id="path386"
             inkscape:connector-curvature="0" /></g><g
           id="g388"
           transform="matrix(4.3121939,0,0,4.3121939,389.85621,462.86359)"><path
             d="m 0,0 -70.172,1.809 0,-4.613 L 0,-4.614 0,0 Z"
             style="fill:#f4ebe6;fill-opacity:1;fill-rule:nonzero;stroke:none"
             id="path390"
             inkscape:connector-curvature="0" /></g><g
           id="g392"
           transform="matrix(4.3121939,0,0,4.3121939,389.85621,426.0836)"><path
             d="m 0,0 -70.172,1.812 0,-4.614 L 0,-4.612 0,0 Z"
             style="fill:#f4ebe6;fill-opacity:1;fill-rule:nonzero;stroke:none"
             id="path394"
             inkscape:connector-curvature="0" /></g><g
           id="g396"
           transform="matrix(4.3121939,0,0,4.3121939,389.85621,387.77924)"><path
             d="m 0,0 -70.172,1.81 0,-4.613 L 0,-4.612 0,0 Z"
             style="fill:#f4ebe6;fill-opacity:1;fill-rule:nonzero;stroke:none"
             id="path398"
             inkscape:connector-curvature="0" /></g><g
           id="g400"
           transform="matrix(4.3121939,0,0,4.3121939,389.85621,351.00744)"><path
             d="m 0,0 -70.172,1.81 0,-4.614 L 0,-4.613 0,0 Z"
             style="fill:#f4ebe6;fill-opacity:1;fill-rule:nonzero;stroke:none"
             id="path402"
             inkscape:connector-curvature="0" /></g><g
           id="g404"
           transform="matrix(4.3121939,0,0,4.3121939,389.85621,314.23175)"><path
             d="m 0,0 -70.172,1.81 0,-4.613 L 0,-4.612 0,0 Z"
             style="fill:#f4ebe6;fill-opacity:1;fill-rule:nonzero;stroke:none"
             id="path406"
             inkscape:connector-curvature="0" /></g><g
           id="g408"
           transform="matrix(4.3121939,0,0,4.3121939,389.85621,275.92308)"><path
             d="m 0,0 -70.172,1.812 0,-4.615 L 0,-4.611 0,0 Z"
             style="fill:#f4ebe6;fill-opacity:1;fill-rule:nonzero;stroke:none"
             id="path410"
             inkscape:connector-curvature="0" /></g><g
           id="g412"
           transform="matrix(4.3121939,0,0,4.3121939,389.85621,239.15171)"><path
             d="m 0,0 -70.172,1.809 0,-4.613 L 0,-4.613 0,0 Z"
             style="fill:#f4ebe6;fill-opacity:1;fill-rule:nonzero;stroke:none"
             id="path414"
             inkscape:connector-curvature="0" /></g></g><g
         id="g6800"><g
           id="g416"
           transform="matrix(4.3121939,0,0,4.3121939,415.22011,613.33544)"><path
             d="m 0,0 70.173,4.137 0,-4.613 L 0,-4.611 0,0 Z"
             style="fill:#f4ebe6;fill-opacity:1;fill-rule:nonzero;stroke:none"
             id="path418"
             inkscape:connector-curvature="0" /></g><g
           id="g420"
           transform="matrix(4.3121939,0,0,4.3121939,415.22011,576.55976)"><path
             d="m 0,0 70.173,4.137 0,-4.613 L 0,-4.613 0,0 Z"
             style="fill:#f4ebe6;fill-opacity:1;fill-rule:nonzero;stroke:none"
             id="path422"
             inkscape:connector-curvature="0" /></g><g
           id="g424"
           transform="matrix(4.3121939,0,0,4.3121939,415.22011,538.25928)"><path
             d="m 0,0 70.173,4.136 0,-4.614 L 0,-4.613 0,0 Z"
             style="fill:#f4ebe6;fill-opacity:1;fill-rule:nonzero;stroke:none"
             id="path426"
             inkscape:connector-curvature="0" /></g><g
           id="g428"
           transform="matrix(4.3121939,0,0,4.3121939,415.22011,501.48791)"><path
             d="m 0,0 70.173,4.136 0,-4.615 L 0,-4.613 0,0 Z"
             style="fill:#f4ebe6;fill-opacity:1;fill-rule:nonzero;stroke:none"
             id="path430"
             inkscape:connector-curvature="0" /></g><g
           id="g432"
           transform="matrix(4.3121939,0,0,4.3121939,415.22011,462.86359)"><path
             d="m 0,0 70.173,4.136 0,-4.615 L 0,-4.614 0,0 Z"
             style="fill:#f4ebe6;fill-opacity:1;fill-rule:nonzero;stroke:none"
             id="path434"
             inkscape:connector-curvature="0" /></g><g
           id="g436"
           transform="matrix(4.3121939,0,0,4.3121939,415.22011,426.0836)"><path
             d="m 0,0 70.173,4.137 0,-4.614 L 0,-4.612 0,0 Z"
             style="fill:#f4ebe6;fill-opacity:1;fill-rule:nonzero;stroke:none"
             id="path438"
             inkscape:connector-curvature="0" /></g><g
           id="g440"
           transform="matrix(4.3121939,0,0,4.3121939,415.22011,387.77924)"><path
             d="m 0,0 70.173,4.137 0,-4.613 L 0,-4.612 0,0 Z"
             style="fill:#f4ebe6;fill-opacity:1;fill-rule:nonzero;stroke:none"
             id="path442"
             inkscape:connector-curvature="0" /></g><g
           id="g444"
           transform="matrix(4.3121939,0,0,4.3121939,415.22011,351.00744)"><path
             d="m 0,0 70.173,4.136 0,-4.614 L 0,-4.613 0,0 Z"
             style="fill:#f4ebe6;fill-opacity:1;fill-rule:nonzero;stroke:none"
             id="path446"
             inkscape:connector-curvature="0" /></g><g
           id="g448"
           transform="matrix(4.3121939,0,0,4.3121939,415.22011,314.23175)"><path
             d="m 0,0 70.173,4.136 0,-4.613 L 0,-4.612 0,0 Z"
             style="fill:#f4ebe6;fill-opacity:1;fill-rule:nonzero;stroke:none"
             id="path450"
             inkscape:connector-curvature="0" /></g><g
           id="g452"
           transform="matrix(4.3121939,0,0,4.3121939,415.22011,275.92308)"><path
             d="m 0,0 70.173,4.137 0,-4.614 L 0,-4.611 0,0 Z"
             style="fill:#f4ebe6;fill-opacity:1;fill-rule:nonzero;stroke:none"
             id="path454"
             inkscape:connector-curvature="0" /></g><g
           id="g456"
           transform="matrix(4.3121939,0,0,4.3121939,415.22011,239.15171)"><path
             d="m 0,0 70.173,4.136 0,-4.614 L 0,-4.613 0,0 Z"
             style="fill:#f4ebe6;fill-opacity:1;fill-rule:nonzero;stroke:none"
             id="path458"
             inkscape:connector-curvature="0" /></g></g></g></g></svg>